<svg xmlns="http://www.w3.org/2000/svg" xmlns:xlink="http://www.w3.org/1999/xlink" width="500" zoomAndPan="magnify" viewBox="0 0 375 225" height="300" preserveAspectRatio="xMidYMid meet" version="1.0"><defs><g/></defs><rect x="-37.5" width="450" fill="#ffffff" y="-22.5" height="270" fill-opacity="1"/><rect x="-37.5" width="450" fill="#ffffff" y="-22.5" height="270" fill-opacity="1"/><g fill="#db4a2b" fill-opacity="1"><g transform="translate(38.613492, 146.084703)"><g><path d="M 87.875 -84.25 C 87.875 -78.789062 86.507812 -74.582031 83.78125 -71.625 C 81.050781 -68.664062 76.953125 -66.46875 71.484375 -65.03125 C 74.085938 -63.0625 76.125 -60.753906 77.59375 -58.109375 C 79.070312 -55.472656 79.8125 -52.675781 79.8125 -49.71875 C 79.8125 -42.195312 76.96875 -36.507812 71.28125 -32.65625 C 65.59375 -28.800781 58.492188 -26.875 49.984375 -26.875 L 39.78125 -26.875 C 34.132812 -26.875 31.3125 -25.578125 31.3125 -22.984375 C 31.3125 -21.722656 31.9375 -20.710938 33.1875 -19.953125 C 34.445312 -19.191406 36.644531 -18.8125 39.78125 -18.8125 L 63.96875 -18.8125 C 71.84375 -18.8125 77.796875 -16.75 81.828125 -12.625 C 85.859375 -8.507812 87.875 -3.003906 87.875 3.890625 C 87.875 9.003906 86.53125 13.394531 83.84375 17.0625 C 81.15625 20.738281 77.523438 23.515625 72.953125 25.390625 C 68.390625 27.273438 63.421875 28.21875 58.046875 28.21875 L 18.546875 28.21875 C 15.316406 28.21875 12.335938 27.457031 9.609375 25.9375 C 6.878906 24.414062 4.707031 22.332031 3.09375 19.6875 C 1.476562 17.039062 0.671875 14.109375 0.671875 10.890625 C 0.671875 7.390625 1.742188 4.226562 3.890625 1.40625 C 6.046875 -1.414062 8.734375 -3.539062 11.953125 -4.96875 C 9.804688 -6.488281 8.101562 -8.320312 6.84375 -10.46875 C 5.59375 -12.625 4.96875 -14.957031 4.96875 -17.46875 C 4.96875 -20.957031 6.265625 -24.113281 8.859375 -26.9375 C 11.460938 -29.757812 14.691406 -31.664062 18.546875 -32.65625 C 15.046875 -34.894531 12.265625 -37.46875 10.203125 -40.375 C 8.148438 -43.289062 7.125 -46.359375 7.125 -49.578125 C 7.125 -57.828125 10.457031 -63.71875 17.125 -67.25 C 23.800781 -70.789062 32.648438 -72.5625 43.671875 -72.5625 C 48.503906 -72.5625 52.398438 -72.289062 55.359375 -71.75 C 59.753906 -74.53125 62.597656 -77.0625 63.890625 -79.34375 C 65.191406 -81.632812 65.84375 -83.269531 65.84375 -84.25 Z M 43.40625 -58.59375 C 40.445312 -58.59375 38.023438 -57.828125 36.140625 -56.296875 C 34.265625 -54.773438 33.328125 -52.582031 33.328125 -49.71875 C 33.328125 -46.757812 34.195312 -44.539062 35.9375 -43.0625 C 37.6875 -41.582031 40.175781 -40.84375 43.40625 -40.84375 C 46.625 -40.84375 49.148438 -41.582031 50.984375 -43.0625 C 52.828125 -44.539062 53.75 -46.757812 53.75 -49.71875 C 53.75 -52.675781 52.828125 -54.894531 50.984375 -56.375 C 49.148438 -57.851562 46.625 -58.59375 43.40625 -58.59375 Z M 33.0625 0 C 31 0 29.316406 0.554688 28.015625 1.671875 C 26.710938 2.796875 26.0625 4.390625 26.0625 6.453125 C 26.0625 8.515625 26.734375 10.171875 28.078125 11.421875 C 29.421875 12.671875 31.082031 13.296875 33.0625 13.296875 L 54.015625 13.296875 C 55.984375 13.296875 57.660156 12.691406 59.046875 11.484375 C 60.441406 10.273438 61.140625 8.640625 61.140625 6.578125 C 61.140625 4.523438 60.46875 2.914062 59.125 1.75 C 57.78125 0.582031 56.078125 0 54.015625 0 Z M 33.0625 0 "/></g></g></g><g fill="#db4a2b" fill-opacity="1"><g transform="translate(120.566369, 146.084703)"><g><path d="M 51.203125 -72.703125 C 53.253906 -72.703125 55.085938 -72.453125 56.703125 -71.953125 C 58.316406 -71.460938 59.125 -71.171875 59.125 -71.078125 L 59.125 -48.640625 L 50.53125 -48.640625 C 44.96875 -48.640625 40.953125 -47.207031 38.484375 -44.34375 C 36.023438 -41.476562 34.796875 -37.222656 34.796875 -31.578125 L 34.796875 0 L 8.0625 0 L 8.0625 -70.953125 L 29.96875 -70.953125 L 31.71875 -60.203125 C 33.320312 -64.316406 35.867188 -67.425781 39.359375 -69.53125 C 42.859375 -71.644531 46.804688 -72.703125 51.203125 -72.703125 Z M 51.203125 -72.703125 "/></g></g></g><g fill="#db4a2b" fill-opacity="1"><g transform="translate(172.558949, 146.084703)"><g><path d="M 9 -79.28125 L 9 -97.421875 L 35.75 -97.421875 L 35.75 -79.28125 Z M 9 0 L 9 -70.953125 L 35.75 -70.953125 L 35.75 0 Z M 9 0 "/></g></g></g><g fill="#db4a2b" fill-opacity="1"><g transform="translate(209.638568, 146.084703)"><g><path d="M 59.65625 0 L 57.375 -10.078125 C 52.175781 -2.285156 44.648438 1.609375 34.796875 1.609375 C 25.210938 1.609375 17.820312 -1.523438 12.625 -7.796875 C 7.4375 -14.066406 4.84375 -23.335938 4.84375 -35.609375 C 4.84375 -47.796875 7.4375 -57 12.625 -63.21875 C 17.820312 -69.445312 25.210938 -72.5625 34.796875 -72.5625 C 42.953125 -72.5625 49.582031 -69.828125 54.6875 -64.359375 L 54.6875 -97.421875 L 81.4375 -97.421875 L 81.4375 0 Z M 43.140625 -52.8125 C 35.429688 -52.8125 31.578125 -48.195312 31.578125 -38.96875 L 31.578125 -31.84375 C 31.578125 -22.707031 35.429688 -18.140625 43.140625 -18.140625 C 47.078125 -18.140625 50.03125 -19.523438 52 -22.296875 C 53.96875 -25.078125 54.953125 -28.707031 54.953125 -33.1875 L 54.953125 -37.625 C 54.953125 -42.101562 53.96875 -45.753906 52 -48.578125 C 50.03125 -51.398438 47.078125 -52.8125 43.140625 -52.8125 Z M 43.140625 -52.8125 "/></g></g></g><g fill="#db4a2b" fill-opacity="1"><g transform="translate(291.591453, 146.084703)"><g><path d="M 8.203125 0 L 8.203125 -26.734375 L 36.6875 -26.734375 L 36.6875 0 Z M 8.203125 0 "/></g></g></g><g fill="#db4a2b" fill-opacity="1"><g transform="translate(225.030583, 170.679795)"><g><path d="M 8.34375 -12.609375 C 9.519531 -12.609375 10.488281 -12.414062 11.25 -12.03125 C 12.007812 -11.644531 12.5625 -11.128906 12.90625 -10.484375 C 13.25 -9.835938 13.394531 -9.109375 13.34375 -8.296875 L 13.328125 -8.109375 L 10.09375 -8.109375 L 10.09375 -8.296875 C 10.0625 -9.597656 9.382812 -10.25 8.0625 -10.25 C 7.425781 -10.25 6.835938 -10.050781 6.296875 -9.65625 C 5.765625 -9.257812 5.332031 -8.675781 5 -7.90625 C 4.675781 -7.144531 4.515625 -6.195312 4.515625 -5.0625 C 4.515625 -4.351562 4.609375 -3.78125 4.796875 -3.34375 C 4.984375 -2.90625 5.238281 -2.585938 5.5625 -2.390625 C 5.894531 -2.203125 6.253906 -2.109375 6.640625 -2.109375 C 7.273438 -2.109375 7.820312 -2.289062 8.28125 -2.65625 C 8.738281 -3.03125 9.09375 -3.5625 9.34375 -4.25 L 9.421875 -4.421875 L 12.640625 -4.421875 L 12.59375 -4.25 C 12.1875 -2.757812 11.421875 -1.632812 10.296875 -0.875 C 9.179688 -0.125 7.847656 0.25 6.296875 0.25 C 5.273438 0.25 4.375 0.0546875 3.59375 -0.328125 C 2.820312 -0.710938 2.21875 -1.285156 1.78125 -2.046875 C 1.34375 -2.804688 1.125 -3.742188 1.125 -4.859375 C 1.125 -6.054688 1.316406 -7.132812 1.703125 -8.09375 C 2.097656 -9.050781 2.628906 -9.863281 3.296875 -10.53125 C 3.960938 -11.207031 4.726562 -11.722656 5.59375 -12.078125 C 6.457031 -12.429688 7.375 -12.609375 8.34375 -12.609375 Z M 8.34375 -12.609375 "/></g></g></g><g fill="#db4a2b" fill-opacity="1"><g transform="translate(238.196777, 170.679795)"><g><path d="M 8.359375 -12.609375 C 9.628906 -12.609375 10.703125 -12.375 11.578125 -11.90625 C 12.453125 -11.4375 13.117188 -10.800781 13.578125 -10 C 14.035156 -9.195312 14.265625 -8.28125 14.265625 -7.25 C 14.265625 -6.09375 14.078125 -5.046875 13.703125 -4.109375 C 13.335938 -3.179688 12.828125 -2.394531 12.171875 -1.75 C 11.515625 -1.101562 10.75 -0.609375 9.875 -0.265625 C 9.007812 0.078125 8.078125 0.25 7.078125 0.25 C 5.816406 0.25 4.742188 0.0195312 3.859375 -0.4375 C 2.984375 -0.90625 2.3125 -1.546875 1.84375 -2.359375 C 1.382812 -3.171875 1.15625 -4.085938 1.15625 -5.109375 C 1.15625 -6.273438 1.34375 -7.320312 1.71875 -8.25 C 2.09375 -9.175781 2.609375 -9.957031 3.265625 -10.59375 C 3.921875 -11.238281 4.679688 -11.734375 5.546875 -12.078125 C 6.421875 -12.429688 7.359375 -12.609375 8.359375 -12.609375 Z M 7.1875 -2.109375 C 7.800781 -2.109375 8.34375 -2.257812 8.8125 -2.5625 C 9.28125 -2.875 9.664062 -3.273438 9.96875 -3.765625 C 10.269531 -4.265625 10.492188 -4.8125 10.640625 -5.40625 C 10.796875 -6 10.875 -6.582031 10.875 -7.15625 C 10.875 -8.0625 10.648438 -8.800781 10.203125 -9.375 C 9.765625 -9.957031 9.113281 -10.25 8.25 -10.25 C 7.632812 -10.25 7.09375 -10.09375 6.625 -9.78125 C 6.15625 -9.476562 5.769531 -9.078125 5.46875 -8.578125 C 5.164062 -8.085938 4.9375 -7.539062 4.78125 -6.9375 C 4.632812 -6.34375 4.5625 -5.757812 4.5625 -5.1875 C 4.5625 -4.28125 4.78125 -3.539062 5.21875 -2.96875 C 5.664062 -2.394531 6.320312 -2.109375 7.1875 -2.109375 Z M 7.1875 -2.109375 "/></g></g></g><g fill="#db4a2b" fill-opacity="1"><g transform="translate(252.096444, 170.679795)"><g><path d="M 6.796875 -12.609375 C 7.890625 -12.609375 8.757812 -12.425781 9.40625 -12.0625 C 10.0625 -11.707031 10.53125 -11.222656 10.8125 -10.609375 C 11.09375 -9.992188 11.207031 -9.304688 11.15625 -8.546875 L 7.9375 -8.546875 C 7.957031 -9.054688 7.851562 -9.46875 7.625 -9.78125 C 7.394531 -10.09375 7.019531 -10.25 6.5 -10.25 C 6.082031 -10.25 5.734375 -10.132812 5.453125 -9.90625 C 5.171875 -9.6875 5.03125 -9.363281 5.03125 -8.9375 C 5.03125 -8.601562 5.195312 -8.3125 5.53125 -8.0625 C 5.875 -7.820312 6.484375 -7.59375 7.359375 -7.375 C 8.492188 -7.101562 9.3125 -6.679688 9.8125 -6.109375 C 10.320312 -5.535156 10.578125 -4.859375 10.578125 -4.078125 C 10.578125 -3.367188 10.425781 -2.738281 10.125 -2.1875 C 9.820312 -1.644531 9.40625 -1.191406 8.875 -0.828125 C 8.34375 -0.460938 7.738281 -0.191406 7.0625 -0.015625 C 6.394531 0.160156 5.707031 0.25 5 0.25 C 4.007812 0.25 3.140625 0.109375 2.390625 -0.171875 C 1.640625 -0.460938 1.070312 -0.90625 0.6875 -1.5 C 0.3125 -2.101562 0.171875 -2.863281 0.265625 -3.78125 L 3.484375 -3.78125 C 3.484375 -3.195312 3.671875 -2.769531 4.046875 -2.5 C 4.429688 -2.238281 4.863281 -2.109375 5.34375 -2.109375 C 5.820312 -2.109375 6.238281 -2.226562 6.59375 -2.46875 C 6.945312 -2.71875 7.125 -3.039062 7.125 -3.4375 C 7.125 -3.707031 6.984375 -3.972656 6.703125 -4.234375 C 6.429688 -4.503906 5.976562 -4.722656 5.34375 -4.890625 C 4.144531 -5.203125 3.21875 -5.601562 2.5625 -6.09375 C 1.90625 -6.59375 1.578125 -7.304688 1.578125 -8.234375 C 1.578125 -8.941406 1.71875 -9.566406 2 -10.109375 C 2.289062 -10.648438 2.679688 -11.101562 3.171875 -11.46875 C 3.671875 -11.84375 4.226562 -12.125 4.84375 -12.3125 C 5.46875 -12.507812 6.117188 -12.609375 6.796875 -12.609375 Z M 6.796875 -12.609375 "/></g></g></g><g fill="#db4a2b" fill-opacity="1"><g transform="translate(262.758092, 170.679795)"><g><path d="M 16.6875 -12.359375 L 14.5 0 L 11.28125 0 L 12.90625 -9.0625 L 9.3125 0 L 5.5625 0 L 5.171875 -9.0625 L 3.59375 0 L 0.375 0 L 2.5625 -12.359375 L 7.8125 -12.359375 L 8.09375 -3.46875 L 11.3125 -12.359375 Z M 16.6875 -12.359375 "/></g></g></g><g fill="#db4a2b" fill-opacity="1"><g transform="translate(278.571942, 170.679795)"><g><path d="M 5.34375 -9.84375 L 4.921875 -7.453125 L 10.640625 -7.453125 L 10.1875 -4.9375 L 4.46875 -4.9375 L 4.046875 -2.5 L 10.296875 -2.5 L 9.84375 0 L 0.375 0 L 2.5625 -12.359375 L 11.859375 -12.359375 L 11.40625 -9.84375 Z M 5.34375 -9.84375 "/></g></g></g><g fill="#db4a2b" fill-opacity="1"><g transform="translate(289.251481, 170.679795)"><g><path d="M 12.375 -9.84375 L 8.375 -9.84375 L 6.640625 0 L 3.421875 0 L 5.15625 -9.84375 L 1.125 -9.84375 L 1.59375 -12.359375 L 12.84375 -12.359375 Z M 12.375 -9.84375 "/></g></g></g><g fill="#db4a2b" fill-opacity="1"><g transform="translate(300.002595, 170.679795)"><g><path d="M 3.59375 0 L 0.375 0 L 2.5625 -12.359375 L 5.78125 -12.359375 Z M 3.59375 0 "/></g></g></g><g fill="#db4a2b" fill-opacity="1"><g transform="translate(304.921704, 170.679795)"><g><path d="M 8.34375 -12.609375 C 9.519531 -12.609375 10.488281 -12.414062 11.25 -12.03125 C 12.007812 -11.644531 12.5625 -11.128906 12.90625 -10.484375 C 13.25 -9.835938 13.394531 -9.109375 13.34375 -8.296875 L 13.328125 -8.109375 L 10.09375 -8.109375 L 10.09375 -8.296875 C 10.0625 -9.597656 9.382812 -10.25 8.0625 -10.25 C 7.425781 -10.25 6.835938 -10.050781 6.296875 -9.65625 C 5.765625 -9.257812 5.332031 -8.675781 5 -7.90625 C 4.675781 -7.144531 4.515625 -6.195312 4.515625 -5.0625 C 4.515625 -4.351562 4.609375 -3.78125 4.796875 -3.34375 C 4.984375 -2.90625 5.238281 -2.585938 5.5625 -2.390625 C 5.894531 -2.203125 6.253906 -2.109375 6.640625 -2.109375 C 7.273438 -2.109375 7.820312 -2.289062 8.28125 -2.65625 C 8.738281 -3.03125 9.09375 -3.5625 9.34375 -4.25 L 9.421875 -4.421875 L 12.640625 -4.421875 L 12.59375 -4.25 C 12.1875 -2.757812 11.421875 -1.632812 10.296875 -0.875 C 9.179688 -0.125 7.847656 0.25 6.296875 0.25 C 5.273438 0.25 4.375 0.0546875 3.59375 -0.328125 C 2.820312 -0.710938 2.21875 -1.285156 1.78125 -2.046875 C 1.34375 -2.804688 1.125 -3.742188 1.125 -4.859375 C 1.125 -6.054688 1.316406 -7.132812 1.703125 -8.09375 C 2.097656 -9.050781 2.628906 -9.863281 3.296875 -10.53125 C 3.960938 -11.207031 4.726562 -11.722656 5.59375 -12.078125 C 6.457031 -12.429688 7.375 -12.609375 8.34375 -12.609375 Z M 8.34375 -12.609375 "/></g></g></g><g fill="#db4a2b" fill-opacity="1"><g transform="translate(318.087894, 170.679795)"><g><path d="M 6.796875 -12.609375 C 7.890625 -12.609375 8.757812 -12.425781 9.40625 -12.0625 C 10.0625 -11.707031 10.53125 -11.222656 10.8125 -10.609375 C 11.09375 -9.992188 11.207031 -9.304688 11.15625 -8.546875 L 7.9375 -8.546875 C 7.957031 -9.054688 7.851562 -9.46875 7.625 -9.78125 C 7.394531 -10.09375 7.019531 -10.25 6.5 -10.25 C 6.082031 -10.25 5.734375 -10.132812 5.453125 -9.90625 C 5.171875 -9.6875 5.03125 -9.363281 5.03125 -8.9375 C 5.03125 -8.601562 5.195312 -8.3125 5.53125 -8.0625 C 5.875 -7.820312 6.484375 -7.59375 7.359375 -7.375 C 8.492188 -7.101562 9.3125 -6.679688 9.8125 -6.109375 C 10.320312 -5.535156 10.578125 -4.859375 10.578125 -4.078125 C 10.578125 -3.367188 10.425781 -2.738281 10.125 -2.1875 C 9.820312 -1.644531 9.40625 -1.191406 8.875 -0.828125 C 8.34375 -0.460938 7.738281 -0.191406 7.0625 -0.015625 C 6.394531 0.160156 5.707031 0.25 5 0.25 C 4.007812 0.25 3.140625 0.109375 2.390625 -0.171875 C 1.640625 -0.460938 1.070312 -0.90625 0.6875 -1.5 C 0.3125 -2.101562 0.171875 -2.863281 0.265625 -3.78125 L 3.484375 -3.78125 C 3.484375 -3.195312 3.671875 -2.769531 4.046875 -2.5 C 4.429688 -2.238281 4.863281 -2.109375 5.34375 -2.109375 C 5.820312 -2.109375 6.238281 -2.226562 6.59375 -2.46875 C 6.945312 -2.71875 7.125 -3.039062 7.125 -3.4375 C 7.125 -3.707031 6.984375 -3.972656 6.703125 -4.234375 C 6.429688 -4.503906 5.976562 -4.722656 5.34375 -4.890625 C 4.144531 -5.203125 3.21875 -5.601562 2.5625 -6.09375 C 1.90625 -6.59375 1.578125 -7.304688 1.578125 -8.234375 C 1.578125 -8.941406 1.71875 -9.566406 2 -10.109375 C 2.289062 -10.648438 2.679688 -11.101562 3.171875 -11.46875 C 3.671875 -11.84375 4.226562 -12.125 4.84375 -12.3125 C 5.46875 -12.507812 6.117188 -12.609375 6.796875 -12.609375 Z M 6.796875 -12.609375 "/></g></g></g></svg>