<svg xmlns="http://www.w3.org/2000/svg" xmlns:xlink="http://www.w3.org/1999/xlink" width="500" zoomAndPan="magnify" viewBox="0 0 375 225" height="300" preserveAspectRatio="xMidYMid meet" version="1.2"><defs/><g id="803ef3838b"><g style="fill:#000000;fill-opacity:1;"><g transform="translate(45.498744, 115.807901)"><path style="stroke:none" d="M 19.734375 -21.5 L 19.734375 0 L 10.453125 0 L 10.453125 -21.5 L 0.96875 -21.5 L 0.96875 -28.890625 L 29.1875 -28.890625 L 29.1875 -21.5 Z M 19.734375 -21.5 "/></g></g><g style="fill:#000000;fill-opacity:1;"><g transform="translate(73.428747, 115.807901)"><path style="stroke:none" d="M 10.875 -19.859375 C 11.769531 -20.753906 12.816406 -21.445312 14.015625 -21.9375 C 15.222656 -22.4375 16.488281 -22.6875 17.8125 -22.6875 C 20.382812 -22.6875 22.3125 -21.96875 23.59375 -20.53125 C 24.882812 -19.101562 25.53125 -17.046875 25.53125 -14.359375 L 25.53125 0 L 17.171875 0 L 17.171875 -13.359375 C 17.171875 -14.304688 16.925781 -15.066406 16.4375 -15.640625 C 15.945312 -16.210938 15.253906 -16.5 14.359375 -16.5 C 13.328125 -16.5 12.488281 -16.160156 11.84375 -15.484375 C 11.195312 -14.816406 10.875 -13.992188 10.875 -13.015625 L 10.875 0 L 2.515625 0 L 2.515625 -30.453125 L 10.875 -30.453125 Z M 10.875 -19.859375 "/></g></g><g style="fill:#000000;fill-opacity:1;"><g transform="translate(99.048749, 115.807901)"><path style="stroke:none" d="M 13.984375 -22.6875 C 18.046875 -22.6875 21.144531 -21.734375 23.28125 -19.828125 C 25.425781 -17.921875 26.5 -15.007812 26.5 -11.09375 L 26.5 -9.65625 L 9.875 -9.65625 C 9.875 -8.0625 10.226562 -6.859375 10.9375 -6.046875 C 11.65625 -5.234375 12.785156 -4.828125 14.328125 -4.828125 C 15.722656 -4.828125 16.75 -5.117188 17.40625 -5.703125 C 18.0625 -6.296875 18.390625 -7.082031 18.390625 -8.0625 L 26.5 -8.0625 C 26.5 -5.375 25.476562 -3.273438 23.4375 -1.765625 C 21.394531 -0.253906 18.410156 0.5 14.484375 0.5 C 10.367188 0.5 7.175781 -0.457031 4.90625 -2.375 C 2.644531 -4.289062 1.515625 -7.195312 1.515625 -11.09375 C 1.515625 -14.894531 2.617188 -17.773438 4.828125 -19.734375 C 7.035156 -21.703125 10.085938 -22.6875 13.984375 -22.6875 Z M 14.328125 -17.34375 C 11.691406 -17.34375 10.21875 -16.097656 9.90625 -13.609375 L 18.0625 -13.609375 C 18.0625 -14.753906 17.734375 -15.660156 17.078125 -16.328125 C 16.421875 -17.003906 15.503906 -17.34375 14.328125 -17.34375 Z M 14.328125 -17.34375 "/></g></g><g style="fill:#000000;fill-opacity:1;"><g transform="translate(124.668751, 115.807901)"><path style="stroke:none" d="M 31.96875 -22.6875 C 34.476562 -22.6875 36.363281 -21.960938 37.625 -20.515625 C 38.882812 -19.078125 39.515625 -17.023438 39.515625 -14.359375 L 39.515625 0 L 31.15625 0 L 31.15625 -13.359375 C 31.15625 -14.304688 30.925781 -15.066406 30.46875 -15.640625 C 30.007812 -16.210938 29.359375 -16.5 28.515625 -16.5 C 27.535156 -16.5 26.738281 -16.160156 26.125 -15.484375 C 25.507812 -14.816406 25.203125 -13.992188 25.203125 -13.015625 L 25.203125 0 L 16.84375 0 L 16.84375 -13.359375 C 16.84375 -14.304688 16.609375 -15.066406 16.140625 -15.640625 C 15.679688 -16.210938 15.035156 -16.5 14.203125 -16.5 C 13.210938 -16.5 12.410156 -16.160156 11.796875 -15.484375 C 11.179688 -14.816406 10.875 -13.992188 10.875 -13.015625 L 10.875 0 L 2.515625 0 L 2.515625 -22.171875 L 9.359375 -22.171875 L 9.90625 -18.859375 C 10.75 -20.035156 11.863281 -20.96875 13.25 -21.65625 C 14.632812 -22.34375 16.097656 -22.6875 17.640625 -22.6875 C 20.972656 -22.6875 23.210938 -21.410156 24.359375 -18.859375 C 25.222656 -20.035156 26.332031 -20.96875 27.6875 -21.65625 C 29.050781 -22.34375 30.476562 -22.6875 31.96875 -22.6875 Z M 31.96875 -22.6875 "/></g></g><g style="fill:#000000;fill-opacity:1;"><g transform="translate(164.27476, 115.807901)"><path style="stroke:none" d="M 2.8125 -24.78125 L 2.8125 -30.453125 L 11.171875 -30.453125 L 11.171875 -24.78125 Z M 2.8125 0 L 2.8125 -22.171875 L 11.171875 -22.171875 L 11.171875 0 Z M 2.8125 0 "/></g></g><g style="fill:#000000;fill-opacity:1;"><g transform="translate(175.866766, 115.807901)"><path style="stroke:none" d="M 17.8125 -22.6875 C 20.382812 -22.6875 22.3125 -21.96875 23.59375 -20.53125 C 24.882812 -19.101562 25.53125 -17.046875 25.53125 -14.359375 L 25.53125 0 L 17.171875 0 L 17.171875 -13.359375 C 17.171875 -14.304688 16.925781 -15.066406 16.4375 -15.640625 C 15.945312 -16.210938 15.253906 -16.5 14.359375 -16.5 C 13.328125 -16.5 12.488281 -16.160156 11.84375 -15.484375 C 11.195312 -14.816406 10.875 -13.992188 10.875 -13.015625 L 10.875 0 L 2.515625 0 L 2.515625 -22.171875 L 9.359375 -22.171875 L 9.90625 -18.8125 C 10.78125 -19.988281 11.921875 -20.925781 13.328125 -21.625 C 14.742188 -22.332031 16.238281 -22.6875 17.8125 -22.6875 Z M 17.8125 -22.6875 "/></g></g><g style="fill:#000000;fill-opacity:1;"><g transform="translate(201.486768, 115.807901)"><path style="stroke:none" d="M 17.296875 -22.171875 L 17.296875 -16.5 L 12.59375 -16.5 L 12.59375 -8.0625 C 12.59375 -7.050781 12.757812 -6.316406 13.09375 -5.859375 C 13.4375 -5.398438 14.054688 -5.171875 14.953125 -5.171875 L 17.296875 -5.171875 L 17.296875 -0.25 C 16.628906 -0.03125 15.765625 0.144531 14.703125 0.28125 C 13.640625 0.425781 12.710938 0.5 11.921875 0.5 C 9.460938 0.5 7.566406 0.0507812 6.234375 -0.84375 C 4.898438 -1.738281 4.234375 -3.265625 4.234375 -5.421875 L 4.234375 -16.5 L 1.140625 -16.5 L 1.140625 -22.171875 L 4.578125 -22.171875 L 6.390625 -28.890625 L 12.59375 -28.890625 L 12.59375 -22.171875 Z M 17.296875 -22.171875 "/></g></g><g style="fill:#000000;fill-opacity:1;"><g transform="translate(217.740776, 115.807901)"><path style="stroke:none" d="M 13.984375 -22.6875 C 17.628906 -22.6875 20.578125 -21.90625 22.828125 -20.34375 C 25.078125 -18.789062 26.203125 -16.421875 26.203125 -13.234375 L 18.109375 -13.234375 C 18.109375 -15.753906 16.734375 -17.015625 13.984375 -17.015625 C 11.242188 -17.015625 9.875 -15.429688 9.875 -12.265625 L 9.875 -9.875 C 9.875 -6.738281 11.300781 -5.171875 14.15625 -5.171875 C 17.007812 -5.171875 18.4375 -6.457031 18.4375 -9.03125 L 26.203125 -9.03125 C 26.203125 -5.8125 25.078125 -3.414062 22.828125 -1.84375 C 20.578125 -0.28125 17.628906 0.5 13.984375 0.5 C 10.085938 0.5 7.035156 -0.476562 4.828125 -2.4375 C 2.617188 -4.394531 1.515625 -7.28125 1.515625 -11.09375 C 1.515625 -14.894531 2.617188 -17.773438 4.828125 -19.734375 C 7.035156 -21.703125 10.085938 -22.6875 13.984375 -22.6875 Z M 13.984375 -22.6875 "/></g></g><g style="fill:#000000;fill-opacity:1;"><g transform="translate(243.360766, 115.807901)"><path style="stroke:none" d="M 13.984375 -22.6875 C 17.878906 -22.6875 20.9375 -21.695312 23.15625 -19.71875 C 25.382812 -17.75 26.5 -14.875 26.5 -11.09375 C 26.5 -7.3125 25.382812 -4.429688 23.15625 -2.453125 C 20.9375 -0.484375 17.878906 0.5 13.984375 0.5 C 10.085938 0.5 7.035156 -0.476562 4.828125 -2.4375 C 2.617188 -4.394531 1.515625 -7.28125 1.515625 -11.09375 C 1.515625 -14.894531 2.617188 -17.773438 4.828125 -19.734375 C 7.035156 -21.703125 10.085938 -22.6875 13.984375 -22.6875 Z M 13.984375 -17.015625 C 11.242188 -17.015625 9.875 -15.429688 9.875 -12.265625 L 9.875 -9.875 C 9.875 -6.738281 11.242188 -5.171875 13.984375 -5.171875 C 16.753906 -5.171875 18.140625 -6.738281 18.140625 -9.875 L 18.140625 -12.265625 C 18.140625 -15.429688 16.753906 -17.015625 13.984375 -17.015625 Z M 13.984375 -17.015625 "/></g></g><g style="fill:#000000;fill-opacity:1;"><g transform="translate(268.98079, 115.807901)"><path style="stroke:none" d="M 18.640625 0 L 17.9375 -3.15625 C 16.3125 -0.71875 13.957031 0.5 10.875 0.5 C 7.882812 0.5 5.578125 -0.476562 3.953125 -2.4375 C 2.328125 -4.394531 1.515625 -7.289062 1.515625 -11.125 C 1.515625 -14.9375 2.328125 -17.816406 3.953125 -19.765625 C 5.578125 -21.710938 7.882812 -22.6875 10.875 -22.6875 C 13.425781 -22.6875 15.5 -21.832031 17.09375 -20.125 L 17.09375 -30.453125 L 25.453125 -30.453125 L 25.453125 0 Z M 13.484375 -16.5 C 11.078125 -16.5 9.875 -15.0625 9.875 -12.1875 L 9.875 -9.953125 C 9.875 -7.097656 11.078125 -5.671875 13.484375 -5.671875 C 14.710938 -5.671875 15.632812 -6.101562 16.25 -6.96875 C 16.863281 -7.84375 17.171875 -8.976562 17.171875 -10.375 L 17.171875 -11.765625 C 17.171875 -13.160156 16.863281 -14.296875 16.25 -15.171875 C 15.632812 -16.054688 14.710938 -16.5 13.484375 -16.5 Z M 13.484375 -16.5 "/></g></g><g style="fill:#000000;fill-opacity:1;"><g transform="translate(294.600769, 115.807901)"><path style="stroke:none" d="M 13.984375 -22.6875 C 18.046875 -22.6875 21.144531 -21.734375 23.28125 -19.828125 C 25.425781 -17.921875 26.5 -15.007812 26.5 -11.09375 L 26.5 -9.65625 L 9.875 -9.65625 C 9.875 -8.0625 10.226562 -6.859375 10.9375 -6.046875 C 11.65625 -5.234375 12.785156 -4.828125 14.328125 -4.828125 C 15.722656 -4.828125 16.75 -5.117188 17.40625 -5.703125 C 18.0625 -6.296875 18.390625 -7.082031 18.390625 -8.0625 L 26.5 -8.0625 C 26.5 -5.375 25.476562 -3.273438 23.4375 -1.765625 C 21.394531 -0.253906 18.410156 0.5 14.484375 0.5 C 10.367188 0.5 7.175781 -0.457031 4.90625 -2.375 C 2.644531 -4.289062 1.515625 -7.195312 1.515625 -11.09375 C 1.515625 -14.894531 2.617188 -17.773438 4.828125 -19.734375 C 7.035156 -21.703125 10.085938 -22.6875 13.984375 -22.6875 Z M 14.328125 -17.34375 C 11.691406 -17.34375 10.21875 -16.097656 9.90625 -13.609375 L 18.0625 -13.609375 C 18.0625 -14.753906 17.734375 -15.660156 17.078125 -16.328125 C 16.421875 -17.003906 15.503906 -17.34375 14.328125 -17.34375 Z M 14.328125 -17.34375 "/></g></g><g style="fill:#000000;fill-opacity:1;"><g transform="translate(229.616101, 138.04447)"><path style="stroke:none" d="M 19.765625 -12.359375 L 14.484375 0 L 10.1875 0 L 10.1875 -9.046875 L 7.03125 0 L 2.71875 0 L 1.8125 -12.359375 L 5.125 -12.359375 L 5.359375 -2.78125 L 8.453125 -12.171875 L 13.09375 -12.171875 L 12.828125 -2.609375 L 16.203125 -12.359375 Z M 19.765625 -12.359375 "/></g></g><g style="fill:#000000;fill-opacity:1;"><g transform="translate(247.2368, 138.04447)"><path style="stroke:none" d="M 5.34375 -9.84375 L 4.921875 -7.453125 L 10.640625 -7.453125 L 10.1875 -4.9375 L 4.46875 -4.9375 L 4.046875 -2.5 L 10.296875 -2.5 L 9.84375 0 L 0.375 0 L 2.5625 -12.359375 L 11.859375 -12.359375 L 11.40625 -9.84375 Z M 5.34375 -9.84375 "/></g></g><g style="fill:#000000;fill-opacity:1;"><g transform="translate(257.916339, 138.04447)"><path style="stroke:none" d="M 9.546875 -6.671875 C 10.179688 -6.460938 10.648438 -6.125 10.953125 -5.65625 C 11.253906 -5.1875 11.40625 -4.625 11.40625 -3.96875 C 11.40625 -3.351562 11.273438 -2.8125 11.015625 -2.34375 C 10.753906 -1.875 10.410156 -1.484375 9.984375 -1.171875 C 9.554688 -0.859375 9.09375 -0.609375 8.59375 -0.421875 C 8.09375 -0.242188 7.609375 -0.128906 7.140625 -0.078125 C 6.816406 -0.0351562 6.523438 -0.0078125 6.265625 0 C 6.015625 0 5.691406 0 5.296875 0 L 0.375 0 L 2.5625 -12.359375 L 7.625 -12.359375 C 7.957031 -12.359375 8.222656 -12.351562 8.421875 -12.34375 C 8.628906 -12.34375 8.890625 -12.320312 9.203125 -12.28125 C 10.085938 -12.175781 10.753906 -11.875 11.203125 -11.375 C 11.648438 -10.875 11.875 -10.28125 11.875 -9.59375 C 11.875 -8.90625 11.675781 -8.304688 11.28125 -7.796875 C 10.894531 -7.285156 10.316406 -6.910156 9.546875 -6.671875 Z M 5.34375 -9.84375 L 4.921875 -7.484375 L 6.375 -7.484375 C 6.65625 -7.484375 6.925781 -7.5 7.1875 -7.53125 C 7.539062 -7.59375 7.828125 -7.722656 8.046875 -7.921875 C 8.273438 -8.128906 8.390625 -8.457031 8.390625 -8.90625 C 8.390625 -9.425781 8.125 -9.722656 7.59375 -9.796875 C 7.363281 -9.828125 7.09375 -9.84375 6.78125 -9.84375 Z M 6.59375 -2.53125 C 6.914062 -2.550781 7.226562 -2.691406 7.53125 -2.953125 C 7.84375 -3.210938 8 -3.578125 8 -4.046875 C 8 -4.390625 7.894531 -4.648438 7.6875 -4.828125 C 7.488281 -5.015625 7.25 -5.117188 6.96875 -5.140625 C 6.84375 -5.148438 6.710938 -5.15625 6.578125 -5.15625 C 6.441406 -5.15625 6.300781 -5.15625 6.15625 -5.15625 L 4.515625 -5.15625 L 4.046875 -2.5 L 5.78125 -2.5 C 5.925781 -2.5 6.066406 -2.5 6.203125 -2.5 C 6.335938 -2.5 6.46875 -2.507812 6.59375 -2.53125 Z M 6.59375 -2.53125 "/></g></g><g style="fill:#000000;fill-opacity:1;"><g transform="translate(269.383037, 138.04447)"><path style="stroke:none" d="M 6.796875 -12.609375 C 7.890625 -12.609375 8.757812 -12.425781 9.40625 -12.0625 C 10.0625 -11.707031 10.53125 -11.222656 10.8125 -10.609375 C 11.09375 -9.992188 11.207031 -9.304688 11.15625 -8.546875 L 7.9375 -8.546875 C 7.957031 -9.054688 7.851562 -9.46875 7.625 -9.78125 C 7.394531 -10.09375 7.019531 -10.25 6.5 -10.25 C 6.082031 -10.25 5.734375 -10.132812 5.453125 -9.90625 C 5.171875 -9.6875 5.03125 -9.363281 5.03125 -8.9375 C 5.03125 -8.601562 5.195312 -8.3125 5.53125 -8.0625 C 5.875 -7.820312 6.484375 -7.59375 7.359375 -7.375 C 8.492188 -7.101562 9.3125 -6.679688 9.8125 -6.109375 C 10.320312 -5.535156 10.578125 -4.859375 10.578125 -4.078125 C 10.578125 -3.367188 10.425781 -2.738281 10.125 -2.1875 C 9.820312 -1.644531 9.40625 -1.191406 8.875 -0.828125 C 8.34375 -0.460938 7.738281 -0.191406 7.0625 -0.015625 C 6.394531 0.160156 5.707031 0.25 5 0.25 C 4.007812 0.25 3.140625 0.109375 2.390625 -0.171875 C 1.640625 -0.460938 1.070312 -0.90625 0.6875 -1.5 C 0.3125 -2.101562 0.171875 -2.863281 0.265625 -3.78125 L 3.484375 -3.78125 C 3.484375 -3.195312 3.671875 -2.769531 4.046875 -2.5 C 4.429688 -2.238281 4.863281 -2.109375 5.34375 -2.109375 C 5.820312 -2.109375 6.238281 -2.226562 6.59375 -2.46875 C 6.945312 -2.71875 7.125 -3.039062 7.125 -3.4375 C 7.125 -3.707031 6.984375 -3.972656 6.703125 -4.234375 C 6.429688 -4.503906 5.976562 -4.722656 5.34375 -4.890625 C 4.144531 -5.203125 3.21875 -5.601562 2.5625 -6.09375 C 1.90625 -6.59375 1.578125 -7.304688 1.578125 -8.234375 C 1.578125 -8.941406 1.71875 -9.566406 2 -10.109375 C 2.289062 -10.648438 2.679688 -11.101562 3.171875 -11.46875 C 3.671875 -11.84375 4.226562 -12.125 4.84375 -12.3125 C 5.46875 -12.507812 6.117188 -12.609375 6.796875 -12.609375 Z M 6.796875 -12.609375 "/></g></g><g style="fill:#000000;fill-opacity:1;"><g transform="translate(280.044688, 138.04447)"><path style="stroke:none" d="M 8.96875 -12.265625 C 9.476562 -12.203125 9.960938 -12.039062 10.421875 -11.78125 C 10.878906 -11.53125 11.242188 -11.175781 11.515625 -10.71875 C 11.796875 -10.257812 11.9375 -9.703125 11.9375 -9.046875 C 11.9375 -8.097656 11.726562 -7.289062 11.3125 -6.625 C 10.90625 -5.96875 10.382812 -5.457031 9.75 -5.09375 C 9.113281 -4.726562 8.445312 -4.503906 7.75 -4.421875 C 7.414062 -4.390625 7.101562 -4.363281 6.8125 -4.34375 C 6.519531 -4.332031 6.179688 -4.328125 5.796875 -4.328125 L 4.375 -4.328125 L 3.59375 0 L 0.375 0 L 2.5625 -12.359375 L 7.03125 -12.359375 C 7.414062 -12.359375 7.75 -12.347656 8.03125 -12.328125 C 8.320312 -12.316406 8.632812 -12.296875 8.96875 -12.265625 Z M 6.9375 -6.859375 C 7.4375 -6.910156 7.828125 -7.085938 8.109375 -7.390625 C 8.398438 -7.691406 8.546875 -8.117188 8.546875 -8.671875 C 8.546875 -9.378906 8.1875 -9.765625 7.46875 -9.828125 C 7.34375 -9.835938 7.207031 -9.84375 7.0625 -9.84375 C 6.914062 -9.84375 6.757812 -9.84375 6.59375 -9.84375 L 5.359375 -9.84375 L 4.8125 -6.84375 L 6.0625 -6.84375 C 6.238281 -6.84375 6.394531 -6.84375 6.53125 -6.84375 C 6.675781 -6.84375 6.8125 -6.847656 6.9375 -6.859375 Z M 6.9375 -6.859375 "/></g></g><g style="fill:#000000;fill-opacity:1;"><g transform="translate(291.099908, 138.04447)"><path style="stroke:none" d="M 8.109375 -3.203125 L 4.21875 -3.203125 L 2.65625 0 L -0.765625 0 L 5.75 -12.359375 L 9.921875 -12.359375 L 12.09375 0 L 8.578125 0 Z M 7.75 -5.71875 L 7.234375 -9.359375 L 5.4375 -5.71875 Z M 7.75 -5.71875 "/></g></g><g style="fill:#000000;fill-opacity:1;"><g transform="translate(303.192727, 138.04447)"><path style="stroke:none" d="M 8.34375 -12.609375 C 9.519531 -12.609375 10.488281 -12.414062 11.25 -12.03125 C 12.007812 -11.644531 12.5625 -11.128906 12.90625 -10.484375 C 13.25 -9.835938 13.394531 -9.109375 13.34375 -8.296875 L 13.328125 -8.109375 L 10.09375 -8.109375 L 10.09375 -8.296875 C 10.0625 -9.597656 9.382812 -10.25 8.0625 -10.25 C 7.425781 -10.25 6.835938 -10.050781 6.296875 -9.65625 C 5.765625 -9.257812 5.332031 -8.675781 5 -7.90625 C 4.675781 -7.144531 4.515625 -6.195312 4.515625 -5.0625 C 4.515625 -4.351562 4.609375 -3.78125 4.796875 -3.34375 C 4.984375 -2.90625 5.238281 -2.585938 5.5625 -2.390625 C 5.894531 -2.203125 6.253906 -2.109375 6.640625 -2.109375 C 7.273438 -2.109375 7.820312 -2.289062 8.28125 -2.65625 C 8.738281 -3.03125 9.09375 -3.5625 9.34375 -4.25 L 9.421875 -4.421875 L 12.640625 -4.421875 L 12.59375 -4.25 C 12.1875 -2.757812 11.421875 -1.632812 10.296875 -0.875 C 9.179688 -0.125 7.847656 0.25 6.296875 0.25 C 5.273438 0.25 4.375 0.0546875 3.59375 -0.328125 C 2.820312 -0.710938 2.21875 -1.285156 1.78125 -2.046875 C 1.34375 -2.804688 1.125 -3.742188 1.125 -4.859375 C 1.125 -6.054688 1.316406 -7.132812 1.703125 -8.09375 C 2.097656 -9.050781 2.628906 -9.863281 3.296875 -10.53125 C 3.960938 -11.207031 4.726562 -11.722656 5.59375 -12.078125 C 6.457031 -12.429688 7.375 -12.609375 8.34375 -12.609375 Z M 8.34375 -12.609375 "/></g></g><g style="fill:#000000;fill-opacity:1;"><g transform="translate(316.358923, 138.04447)"><path style="stroke:none" d="M 5.34375 -9.84375 L 4.921875 -7.453125 L 10.640625 -7.453125 L 10.1875 -4.9375 L 4.46875 -4.9375 L 4.046875 -2.5 L 10.296875 -2.5 L 9.84375 0 L 0.375 0 L 2.5625 -12.359375 L 11.859375 -12.359375 L 11.40625 -9.84375 Z M 5.34375 -9.84375 "/></g></g></g></svg>